<mxfile host="app.diagrams.net" agent="Mozilla/5.0 (Windows NT 10.0; Win64; x64; rv:135.0) Gecko/20100101 Firefox/135.0" version="26.0.13">
  <diagram name="Page-1" id="GWnZjq0Dgqi9t-52ZCjK">
    <mxGraphModel>
      <root>
        <mxCell id="0" />
        <mxCell id="1" parent="0" />
        <mxCell id="2" value="Utilisateur" style="swimlane;fontStyle=1;align=center;verticalAlign=top;childLayout=stackLayout;horizontal=1;startSize=33.142857142857146;horizontalStack=0;resizeParent=1;resizeParentMax=0;resizeLast=0;collapsible=0;marginBottom=0;" vertex="1" parent="1">
          <mxGeometry x="19" y="8" width="246" height="240" as="geometry" />
        </mxCell>
        <mxCell id="3" value="- id_utilisateur: int" style="text;strokeColor=none;fillColor=none;align=left;verticalAlign=top;spacingLeft=4;spacingRight=4;overflow=hidden;rotatable=0;points=[[0,0.5],[1,0.5]];portConstraint=eastwest;" vertex="1" parent="2">
          <mxGeometry y="33" width="246" height="33" as="geometry" />
        </mxCell>
        <mxCell id="4" value="- nom: string" style="text;strokeColor=none;fillColor=none;align=left;verticalAlign=top;spacingLeft=4;spacingRight=4;overflow=hidden;rotatable=0;points=[[0,0.5],[1,0.5]];portConstraint=eastwest;" vertex="1" parent="2">
          <mxGeometry y="66" width="246" height="33" as="geometry" />
        </mxCell>
        <mxCell id="5" value="- prenom: string" style="text;strokeColor=none;fillColor=none;align=left;verticalAlign=top;spacingLeft=4;spacingRight=4;overflow=hidden;rotatable=0;points=[[0,0.5],[1,0.5]];portConstraint=eastwest;" vertex="1" parent="2">
          <mxGeometry y="99" width="246" height="33" as="geometry" />
        </mxCell>
        <mxCell id="6" style="line;strokeWidth=1;fillColor=none;align=left;verticalAlign=middle;spacingTop=-1;spacingLeft=3;spacingRight=3;rotatable=0;labelPosition=right;points=[];portConstraint=eastwest;strokeColor=inherit;" vertex="1" parent="2">
          <mxGeometry y="133" width="246" height="8" as="geometry" />
        </mxCell>
        <mxCell id="7" value="+ getIdUtilisateur() : : int" style="text;strokeColor=none;fillColor=none;align=left;verticalAlign=top;spacingLeft=4;spacingRight=4;overflow=hidden;rotatable=0;points=[[0,0.5],[1,0.5]];portConstraint=eastwest;" vertex="1" parent="2">
          <mxGeometry y="141" width="246" height="33" as="geometry" />
        </mxCell>
        <mxCell id="8" value="+ getNom() : : string" style="text;strokeColor=none;fillColor=none;align=left;verticalAlign=top;spacingLeft=4;spacingRight=4;overflow=hidden;rotatable=0;points=[[0,0.5],[1,0.5]];portConstraint=eastwest;" vertex="1" parent="2">
          <mxGeometry y="174" width="246" height="33" as="geometry" />
        </mxCell>
        <mxCell id="9" value="+ getPrenom() : : string" style="text;strokeColor=none;fillColor=none;align=left;verticalAlign=top;spacingLeft=4;spacingRight=4;overflow=hidden;rotatable=0;points=[[0,0.5],[1,0.5]];portConstraint=eastwest;" vertex="1" parent="2">
          <mxGeometry y="207" width="246" height="33" as="geometry" />
        </mxCell>
        <mxCell id="10" value="Produit" style="swimlane;fontStyle=1;align=center;verticalAlign=top;childLayout=stackLayout;horizontal=1;startSize=33.142857142857146;horizontalStack=0;resizeParent=1;resizeParentMax=0;resizeLast=0;collapsible=0;marginBottom=0;" vertex="1" parent="1">
          <mxGeometry x="107" y="320" width="250" height="240" as="geometry" />
        </mxCell>
        <mxCell id="11" value="- id_produit: int" style="text;strokeColor=none;fillColor=none;align=left;verticalAlign=top;spacingLeft=4;spacingRight=4;overflow=hidden;rotatable=0;points=[[0,0.5],[1,0.5]];portConstraint=eastwest;" vertex="1" parent="10">
          <mxGeometry y="33" width="250" height="33" as="geometry" />
        </mxCell>
        <mxCell id="12" value="- nom_produit: string" style="text;strokeColor=none;fillColor=none;align=left;verticalAlign=top;spacingLeft=4;spacingRight=4;overflow=hidden;rotatable=0;points=[[0,0.5],[1,0.5]];portConstraint=eastwest;" vertex="1" parent="10">
          <mxGeometry y="66" width="250" height="33" as="geometry" />
        </mxCell>
        <mxCell id="13" value="- prix: float" style="text;strokeColor=none;fillColor=none;align=left;verticalAlign=top;spacingLeft=4;spacingRight=4;overflow=hidden;rotatable=0;points=[[0,0.5],[1,0.5]];portConstraint=eastwest;" vertex="1" parent="10">
          <mxGeometry y="99" width="250" height="33" as="geometry" />
        </mxCell>
        <mxCell id="14" style="line;strokeWidth=1;fillColor=none;align=left;verticalAlign=middle;spacingTop=-1;spacingLeft=3;spacingRight=3;rotatable=0;labelPosition=right;points=[];portConstraint=eastwest;strokeColor=inherit;" vertex="1" parent="10">
          <mxGeometry y="133" width="250" height="8" as="geometry" />
        </mxCell>
        <mxCell id="15" value="+ getIdProduit() : : int" style="text;strokeColor=none;fillColor=none;align=left;verticalAlign=top;spacingLeft=4;spacingRight=4;overflow=hidden;rotatable=0;points=[[0,0.5],[1,0.5]];portConstraint=eastwest;" vertex="1" parent="10">
          <mxGeometry y="141" width="250" height="33" as="geometry" />
        </mxCell>
        <mxCell id="16" value="+ getNomProduit() : : string" style="text;strokeColor=none;fillColor=none;align=left;verticalAlign=top;spacingLeft=4;spacingRight=4;overflow=hidden;rotatable=0;points=[[0,0.5],[1,0.5]];portConstraint=eastwest;" vertex="1" parent="10">
          <mxGeometry y="174" width="250" height="33" as="geometry" />
        </mxCell>
        <mxCell id="17" value="+ getPrix() : : float" style="text;strokeColor=none;fillColor=none;align=left;verticalAlign=top;spacingLeft=4;spacingRight=4;overflow=hidden;rotatable=0;points=[[0,0.5],[1,0.5]];portConstraint=eastwest;" vertex="1" parent="10">
          <mxGeometry y="207" width="250" height="33" as="geometry" />
        </mxCell>
        <mxCell id="18" value="Commande" style="swimlane;fontStyle=1;align=center;verticalAlign=top;childLayout=stackLayout;horizontal=1;startSize=33.142857142857146;horizontalStack=0;resizeParent=1;resizeParentMax=0;resizeLast=0;collapsible=0;marginBottom=0;" vertex="1" parent="1">
          <mxGeometry x="8" y="633" width="268" height="240" as="geometry" />
        </mxCell>
        <mxCell id="19" value="- id_commande: int" style="text;strokeColor=none;fillColor=none;align=left;verticalAlign=top;spacingLeft=4;spacingRight=4;overflow=hidden;rotatable=0;points=[[0,0.5],[1,0.5]];portConstraint=eastwest;" vertex="1" parent="18">
          <mxGeometry y="33" width="268" height="33" as="geometry" />
        </mxCell>
        <mxCell id="20" value="- date: Date" style="text;strokeColor=none;fillColor=none;align=left;verticalAlign=top;spacingLeft=4;spacingRight=4;overflow=hidden;rotatable=0;points=[[0,0.5],[1,0.5]];portConstraint=eastwest;" vertex="1" parent="18">
          <mxGeometry y="66" width="268" height="33" as="geometry" />
        </mxCell>
        <mxCell id="21" value="- montant_total: float" style="text;strokeColor=none;fillColor=none;align=left;verticalAlign=top;spacingLeft=4;spacingRight=4;overflow=hidden;rotatable=0;points=[[0,0.5],[1,0.5]];portConstraint=eastwest;" vertex="1" parent="18">
          <mxGeometry y="99" width="268" height="33" as="geometry" />
        </mxCell>
        <mxCell id="22" style="line;strokeWidth=1;fillColor=none;align=left;verticalAlign=middle;spacingTop=-1;spacingLeft=3;spacingRight=3;rotatable=0;labelPosition=right;points=[];portConstraint=eastwest;strokeColor=inherit;" vertex="1" parent="18">
          <mxGeometry y="133" width="268" height="8" as="geometry" />
        </mxCell>
        <mxCell id="23" value="+ getIdCommande() : : int" style="text;strokeColor=none;fillColor=none;align=left;verticalAlign=top;spacingLeft=4;spacingRight=4;overflow=hidden;rotatable=0;points=[[0,0.5],[1,0.5]];portConstraint=eastwest;" vertex="1" parent="18">
          <mxGeometry y="141" width="268" height="33" as="geometry" />
        </mxCell>
        <mxCell id="24" value="+ getDate() : : Date" style="text;strokeColor=none;fillColor=none;align=left;verticalAlign=top;spacingLeft=4;spacingRight=4;overflow=hidden;rotatable=0;points=[[0,0.5],[1,0.5]];portConstraint=eastwest;" vertex="1" parent="18">
          <mxGeometry y="174" width="268" height="33" as="geometry" />
        </mxCell>
        <mxCell id="25" value="+ getMontantTotal() : : float" style="text;strokeColor=none;fillColor=none;align=left;verticalAlign=top;spacingLeft=4;spacingRight=4;overflow=hidden;rotatable=0;points=[[0,0.5],[1,0.5]];portConstraint=eastwest;" vertex="1" parent="18">
          <mxGeometry y="207" width="268" height="33" as="geometry" />
        </mxCell>
        <mxCell id="26" value="AchÃ¨te" style="curved=1;startArrow=none;endArrow=none;exitX=0.78;exitY=1;entryX=0.5;entryY=0;" edge="1" parent="1" source="2" target="10">
          <mxGeometry relative="1" as="geometry">
            <Array as="points">
              <mxPoint x="232" y="284" />
            </Array>
          </mxGeometry>
        </mxCell>
        <mxCell id="27" value="1" style="edgeLabel;resizable=0;labelBackgroundColor=none;fontSize=12;align=right;verticalAlign=top;" vertex="1" parent="26">
          <mxGeometry x="-1" relative="1" as="geometry" />
        </mxCell>
        <mxCell id="28" value="0..*" style="edgeLabel;resizable=0;labelBackgroundColor=none;fontSize=12;align=left;verticalAlign=bottom;" vertex="1" parent="26">
          <mxGeometry x="1" relative="1" as="geometry" />
        </mxCell>
        <mxCell id="29" value="Passe" style="curved=1;startArrow=none;endArrow=none;exitX=0.22;exitY=1;entryX=0.24;entryY=0;" edge="1" parent="1" source="2" target="18">
          <mxGeometry relative="1" as="geometry">
            <Array as="points">
              <mxPoint x="51" y="284" />
              <mxPoint x="51" y="597" />
            </Array>
          </mxGeometry>
        </mxCell>
        <mxCell id="30" value="1" style="edgeLabel;resizable=0;labelBackgroundColor=none;fontSize=12;align=right;verticalAlign=top;" vertex="1" parent="29">
          <mxGeometry x="-1" relative="1" as="geometry" />
        </mxCell>
        <mxCell id="31" value="0..*" style="edgeLabel;resizable=0;labelBackgroundColor=none;fontSize=12;align=left;verticalAlign=bottom;" vertex="1" parent="29">
          <mxGeometry x="1" relative="1" as="geometry" />
        </mxCell>
        <mxCell id="32" value="Est inclus dans" style="curved=1;startArrow=none;endArrow=none;exitX=0.5;exitY=1;entryX=0.76;entryY=0;" edge="1" parent="1" source="10" target="18">
          <mxGeometry relative="1" as="geometry">
            <Array as="points">
              <mxPoint x="232" y="597" />
            </Array>
          </mxGeometry>
        </mxCell>
        <mxCell id="33" value="0..*" style="edgeLabel;resizable=0;labelBackgroundColor=none;fontSize=12;align=right;verticalAlign=top;" vertex="1" parent="32">
          <mxGeometry x="-1" relative="1" as="geometry" />
        </mxCell>
        <mxCell id="34" value="0..1" style="edgeLabel;resizable=0;labelBackgroundColor=none;fontSize=12;align=left;verticalAlign=bottom;" vertex="1" parent="32">
          <mxGeometry x="1" relative="1" as="geometry" />
        </mxCell>
      </root>
    </mxGraphModel>
  </diagram>
</mxfile>
